<svg width="140" height="13" viewBox="0 0 140 13" fill="none" xmlns="http://www.w3.org/2000/svg">
<path d="M6.4446 12.4929C5.50284 12.4929 4.67034 12.3636 3.94709 12.1051C3.22384 11.8497 2.616 11.4727 2.12358 10.9741C1.63116 10.4755 1.25876 9.86458 1.00639 9.14134C0.754025 8.41809 0.627841 7.5902 0.627841 6.65767C0.627841 5.75592 0.755563 4.94957 1.01101 4.23864C1.26953 3.5277 1.64347 2.92448 2.13281 2.42898C2.62524 1.9304 3.2223 1.55031 3.92401 1.28871C4.62879 1.02711 5.4259 0.896306 6.31534 0.896306C7.18016 0.896306 7.93726 1.03788 8.58665 1.32102C9.23911 1.60109 9.78385 1.98118 10.2209 2.46129C10.661 2.93833 10.9903 3.47538 11.2088 4.07244C11.4304 4.66951 11.5412 5.28504 11.5412 5.91903C11.5412 6.36529 11.5196 6.81771 11.4766 7.27628C11.4335 7.73485 11.3427 8.15649 11.2042 8.54119C11.0657 8.92282 10.8518 9.23059 10.5625 9.46449C10.2763 9.69839 9.88849 9.81534 9.39915 9.81534C9.18371 9.81534 8.94673 9.78149 8.68821 9.71378C8.42969 9.64607 8.2004 9.53374 8.00036 9.37678C7.80031 9.21982 7.68182 9.009 7.64489 8.74432H7.58949C7.51563 8.92282 7.40175 9.09209 7.24787 9.25213C7.09706 9.41217 6.89856 9.53989 6.65234 9.6353C6.40921 9.73071 6.11222 9.77225 5.76136 9.75994C5.36127 9.74455 5.00888 9.6553 4.70419 9.49219C4.3995 9.32599 4.14406 9.10133 3.93786 8.81818C3.73473 8.53196 3.58085 8.20111 3.47621 7.82564C3.37464 7.44709 3.32386 7.0393 3.32386 6.60227C3.32386 6.18679 3.38542 5.8067 3.50852 5.462C3.63163 5.11731 3.80244 4.8157 4.02095 4.55717C4.24254 4.29865 4.50107 4.09245 4.79652 3.93857C5.09505 3.78161 5.41667 3.68466 5.76136 3.64773C6.06913 3.61695 6.3492 3.6308 6.60156 3.68928C6.85393 3.74467 7.06167 3.82931 7.22479 3.94318C7.3879 4.05398 7.491 4.17708 7.53409 4.3125H7.58949V3.79545H8.56818V7.96875C8.56818 8.22727 8.64051 8.45502 8.78516 8.65199C8.92981 8.84896 9.14063 8.94744 9.41761 8.94744C9.73153 8.94744 9.97159 8.83973 10.1378 8.62429C10.3071 8.40885 10.4225 8.07647 10.484 7.62713C10.5487 7.17779 10.581 6.60227 10.581 5.90057C10.581 5.48816 10.524 5.08191 10.4102 4.68182C10.2994 4.27865 10.1301 3.90163 9.90234 3.55078C9.67768 3.19993 9.39299 2.89062 9.0483 2.62287C8.7036 2.35511 8.29889 2.14583 7.83416 1.99503C7.37251 1.84115 6.84777 1.7642 6.25994 1.7642C5.5367 1.7642 4.88885 1.87654 4.31641 2.10121C3.74704 2.3228 3.26231 2.64749 2.86222 3.07528C2.4652 3.5 2.16205 4.01705 1.95277 4.62642C1.74657 5.23272 1.64347 5.92211 1.64347 6.6946C1.64347 7.4794 1.74657 8.17649 1.95277 8.78587C2.16205 9.39524 2.46982 9.90921 2.87607 10.3278C3.28539 10.7463 3.79167 11.0633 4.39489 11.2788C4.99811 11.4973 5.69366 11.6065 6.48153 11.6065C6.82008 11.6065 7.154 11.5742 7.48331 11.5096C7.81262 11.445 8.10346 11.3742 8.35582 11.2972C8.60819 11.2203 8.78977 11.1634 8.90057 11.1264L9.15909 11.9759C8.96828 12.0559 8.71899 12.1359 8.41122 12.2159C8.10653 12.2959 7.7803 12.3621 7.43253 12.4144C7.08783 12.4667 6.75852 12.4929 6.4446 12.4929ZM5.90909 8.81818C6.3215 8.81818 6.65542 8.73509 6.91087 8.56889C7.16631 8.4027 7.35251 8.15187 7.46946 7.81641C7.58641 7.48094 7.64489 7.05777 7.64489 6.54688C7.64489 6.02983 7.58026 5.62666 7.45099 5.33736C7.32173 5.04806 7.13092 4.84493 6.87855 4.72798C6.62618 4.61103 6.31534 4.55256 5.94602 4.55256C5.59517 4.55256 5.2951 4.64489 5.04581 4.82955C4.7996 5.01113 4.61032 5.25426 4.47798 5.55895C4.34872 5.86056 4.28409 6.18987 4.28409 6.54688C4.28409 6.94081 4.33641 7.31167 4.44105 7.65945C4.54569 8.00414 4.7165 8.28421 4.95348 8.49964C5.19046 8.712 5.509 8.81818 5.90909 8.81818ZM16.8097 10V9.16903L19.9305 5.75284C20.2967 5.35275 20.5983 5.00497 20.8353 4.70952C21.0723 4.41098 21.2477 4.13092 21.3616 3.86932C21.4785 3.60464 21.537 3.32765 21.537 3.03835C21.537 2.70597 21.457 2.41821 21.297 2.17507C21.14 1.93194 20.9246 1.7442 20.6507 1.61186C20.3767 1.47952 20.069 1.41335 19.7274 1.41335C19.3642 1.41335 19.0472 1.48875 18.7764 1.63956C18.5086 1.78729 18.3009 1.99503 18.1531 2.26278C18.0085 2.53054 17.9362 2.84446 17.9362 3.20454H16.8467C16.8467 2.65057 16.9744 2.1643 17.2298 1.74574C17.4853 1.32718 17.8331 1.00095 18.2732 0.767045C18.7164 0.533144 19.2134 0.416193 19.7643 0.416193C20.3183 0.416193 20.8092 0.533144 21.2369 0.767045C21.6647 1.00095 22.0002 1.31641 22.2433 1.71342C22.4865 2.11044 22.608 2.55208 22.608 3.03835C22.608 3.38613 22.545 3.72621 22.4188 4.05859C22.2957 4.3879 22.0802 4.75568 21.7725 5.16193C21.4678 5.5651 21.0446 6.05753 20.5029 6.6392L18.3794 8.91051V8.98438H22.7742V10H16.8097ZM27.7646 10.1293C27.0691 10.1293 26.4767 9.93999 25.9873 9.56143C25.498 9.17981 25.124 8.62737 24.8655 7.90412C24.607 7.17779 24.4777 6.30066 24.4777 5.27273C24.4777 4.25095 24.607 3.37843 24.8655 2.65518C25.1271 1.92886 25.5026 1.37488 25.9919 0.993252C26.4843 0.608546 27.0753 0.416193 27.7646 0.416193C28.454 0.416193 29.0434 0.608546 29.5328 0.993252C30.0252 1.37488 30.4007 1.92886 30.6592 2.65518C30.9208 3.37843 31.0516 4.25095 31.0516 5.27273C31.0516 6.30066 30.9223 7.17779 30.6638 7.90412C30.4053 8.62737 30.0313 9.17981 29.542 9.56143C29.0526 9.93999 28.4602 10.1293 27.7646 10.1293ZM27.7646 9.11364C28.454 9.11364 28.9896 8.78125 29.3712 8.11648C29.7528 7.4517 29.9436 6.50379 29.9436 5.27273C29.9436 4.45407 29.8559 3.75698 29.6805 3.18146C29.5081 2.60594 29.2588 2.16738 28.9326 1.86577C28.6095 1.56416 28.2201 1.41335 27.7646 1.41335C27.0814 1.41335 26.5474 1.75035 26.1627 2.42436C25.778 3.09529 25.5857 4.04474 25.5857 5.27273C25.5857 6.09138 25.6718 6.78693 25.8442 7.35938C26.0165 7.93182 26.2643 8.36731 26.5874 8.66584C26.9137 8.96437 27.3061 9.11364 27.7646 9.11364ZM32.8058 10V9.16903L35.9266 5.75284C36.2928 5.35275 36.5944 5.00497 36.8314 4.70952C37.0684 4.41098 37.2438 4.13092 37.3577 3.86932C37.4746 3.60464 37.5331 3.32765 37.5331 3.03835C37.5331 2.70597 37.4531 2.41821 37.2931 2.17507C37.1361 1.93194 36.9207 1.7442 36.6468 1.61186C36.3728 1.47952 36.0651 1.41335 35.7235 1.41335C35.3603 1.41335 35.0433 1.48875 34.7725 1.63956C34.5047 1.78729 34.297 1.99503 34.1492 2.26278C34.0046 2.53054 33.9323 2.84446 33.9323 3.20454H32.8428C32.8428 2.65057 32.9705 2.1643 33.2259 1.74574C33.4814 1.32718 33.8292 1.00095 34.2693 0.767045C34.7124 0.533144 35.2095 0.416193 35.7604 0.416193C36.3144 0.416193 36.8052 0.533144 37.233 0.767045C37.6608 1.00095 37.9963 1.31641 38.2394 1.71342C38.4826 2.11044 38.6041 2.55208 38.6041 3.03835C38.6041 3.38613 38.541 3.72621 38.4149 4.05859C38.2918 4.3879 38.0763 4.75568 37.7686 5.16193C37.4639 5.5651 37.0407 6.05753 36.499 6.6392L34.3754 8.91051V8.98438H38.7703V10H32.8058ZM40.6769 10V9.16903L43.7977 5.75284C44.1639 5.35275 44.4655 5.00497 44.7025 4.70952C44.9395 4.41098 45.1149 4.13092 45.2288 3.86932C45.3457 3.60464 45.4042 3.32765 45.4042 3.03835C45.4042 2.70597 45.3242 2.41821 45.1642 2.17507C45.0072 1.93194 44.7918 1.7442 44.5178 1.61186C44.2439 1.47952 43.9362 1.41335 43.5945 1.41335C43.2314 1.41335 42.9144 1.48875 42.6436 1.63956C42.3758 1.78729 42.1681 1.99503 42.0203 2.26278C41.8757 2.53054 41.8034 2.84446 41.8034 3.20454H40.7139C40.7139 2.65057 40.8416 2.1643 41.097 1.74574C41.3525 1.32718 41.7003 1.00095 42.1404 0.767045C42.5835 0.533144 43.0806 0.416193 43.6315 0.416193C44.1855 0.416193 44.6763 0.533144 45.1041 0.767045C45.5319 1.00095 45.8674 1.31641 46.1105 1.71342C46.3537 2.11044 46.4752 2.55208 46.4752 3.03835C46.4752 3.38613 46.4121 3.72621 46.286 4.05859C46.1628 4.3879 45.9474 4.75568 45.6396 5.16193C45.335 5.5651 44.9118 6.05753 44.3701 6.6392L42.2465 8.91051V8.98438H46.6414V10H40.6769ZM55.2881 10H52.3705V0.545454H55.4173C56.3345 0.545454 57.1193 0.73473 57.7718 1.11328C58.4242 1.48875 58.9243 2.02888 59.2721 2.73366C59.6199 3.43537 59.7938 4.27557 59.7938 5.25426C59.7938 6.23911 59.6183 7.087 59.2675 7.79794C58.9166 8.5058 58.4057 9.05054 57.7348 9.43217C57.0639 9.81072 56.2483 10 55.2881 10ZM53.5154 8.98438H55.2142C55.9959 8.98438 56.6438 8.83357 57.1578 8.53196C57.6717 8.23035 58.0549 7.80102 58.3073 7.24396C58.5596 6.68691 58.6858 6.02367 58.6858 5.25426C58.6858 4.491 58.5612 3.83393 58.3119 3.28303C58.0626 2.72905 57.6902 2.30433 57.1947 2.00888C56.6992 1.71035 56.0821 1.56108 55.3435 1.56108H53.5154V8.98438ZM61.5665 10V2.90909H62.656V10H61.5665ZM62.1205 1.72727C61.9081 1.72727 61.725 1.65495 61.5711 1.5103C61.4203 1.36565 61.3449 1.19176 61.3449 0.988636C61.3449 0.785511 61.4203 0.611624 61.5711 0.466974C61.725 0.322325 61.9081 0.25 62.1205 0.25C62.3328 0.25 62.5144 0.322325 62.6652 0.466974C62.8191 0.611624 62.896 0.785511 62.896 0.988636C62.896 1.19176 62.8191 1.36565 62.6652 1.5103C62.5144 1.65495 62.3328 1.72727 62.1205 1.72727ZM67.5137 12.8068C66.9874 12.8068 66.535 12.7391 66.1564 12.6037C65.7779 12.4714 65.4624 12.2959 65.21 12.0774C64.9608 11.862 64.7623 11.6312 64.6145 11.3849L65.4824 10.7756C65.5809 10.9048 65.7056 11.0526 65.8564 11.2188C66.0072 11.388 66.2134 11.5342 66.475 11.6573C66.7396 11.7835 67.0859 11.8466 67.5137 11.8466C68.0861 11.8466 68.5585 11.7081 68.9309 11.4311C69.3033 11.1541 69.4895 10.7202 69.4895 10.1293V8.68892H69.3972C69.3172 8.81818 69.2033 8.97822 69.0556 9.16903C68.9109 9.35677 68.7016 9.5245 68.4277 9.67223C68.1569 9.81688 67.7907 9.8892 67.329 9.8892C66.7566 9.8892 66.2426 9.75379 65.7871 9.48295C65.3347 9.21212 64.9761 8.81818 64.7115 8.30114C64.4499 7.78409 64.3191 7.15625 64.3191 6.41761C64.3191 5.69129 64.4468 5.05883 64.7022 4.52024C64.9577 3.97857 65.3132 3.56001 65.7686 3.26456C66.2241 2.96603 66.7504 2.81676 67.3475 2.81676C67.8091 2.81676 68.1754 2.8937 68.4462 3.04759C68.7201 3.19839 68.9294 3.37074 69.074 3.56463C69.2218 3.75544 69.3356 3.91241 69.4157 4.03551H69.5265V2.90909H70.579V10.2031C70.579 10.8125 70.4405 11.308 70.1635 11.6896C69.8896 12.0743 69.5203 12.3559 69.0556 12.5344C68.5939 12.716 68.08 12.8068 67.5137 12.8068ZM67.4767 8.91051C67.9138 8.91051 68.2831 8.81049 68.5847 8.61044C68.8863 8.41039 69.1156 8.12263 69.2725 7.74716C69.4295 7.37169 69.508 6.92235 69.508 6.39915C69.508 5.88826 69.431 5.43738 69.2772 5.04652C69.1233 4.65566 68.8955 4.34943 68.5939 4.12784C68.2923 3.90625 67.9199 3.79545 67.4767 3.79545C67.0151 3.79545 66.6304 3.91241 66.3226 4.14631C66.0179 4.38021 65.7886 4.69413 65.6348 5.08807C65.484 5.48201 65.4086 5.91903 65.4086 6.39915C65.4086 6.89157 65.4855 7.32706 65.6394 7.70561C65.7963 8.08108 66.0272 8.37654 66.3319 8.59197C66.6396 8.80433 67.0212 8.91051 67.4767 8.91051ZM72.5733 10V2.90909H73.6628V10H72.5733ZM73.1273 1.72727C72.915 1.72727 72.7318 1.65495 72.5779 1.5103C72.4271 1.36565 72.3517 1.19176 72.3517 0.988636C72.3517 0.785511 72.4271 0.611624 72.5779 0.466974C72.7318 0.322325 72.915 0.25 73.1273 0.25C73.3397 0.25 73.5212 0.322325 73.6721 0.466974C73.8259 0.611624 73.9029 0.785511 73.9029 0.988636C73.9029 1.19176 73.8259 1.36565 73.6721 1.5103C73.5212 1.65495 73.3397 1.72727 73.1273 1.72727ZM78.7421 2.90909V3.83239H75.0674V2.90909H78.7421ZM76.1384 1.21023H77.2279V7.96875C77.2279 8.27652 77.2725 8.50734 77.3618 8.66122C77.4541 8.81203 77.5711 8.91359 77.7126 8.96591C77.8573 9.01515 78.0096 9.03977 78.1697 9.03977C78.2897 9.03977 78.3882 9.03362 78.4651 9.02131C78.5421 9.00592 78.6036 8.99361 78.6498 8.98438L78.8714 9.96307C78.7975 9.99077 78.6944 10.0185 78.5621 10.0462C78.4297 10.0769 78.262 10.0923 78.0589 10.0923C77.7511 10.0923 77.4495 10.0262 77.154 9.89382C76.8617 9.76148 76.6185 9.5599 76.4246 9.28906C76.2338 9.01823 76.1384 8.67661 76.1384 8.2642V1.21023ZM82.4676 10.1662C82.0183 10.1662 81.6105 10.0816 81.2442 9.91229C80.878 9.73994 80.5872 9.49219 80.3717 9.16903C80.1563 8.8428 80.0486 8.44886 80.0486 7.98722C80.0486 7.58097 80.1286 7.25166 80.2886 6.99929C80.4487 6.74384 80.6626 6.5438 80.9303 6.39915C81.1981 6.2545 81.4935 6.14678 81.8167 6.07599C82.1429 6.00213 82.4707 5.94366 82.8 5.90057C83.2309 5.84517 83.5802 5.80362 83.8479 5.77592C84.1188 5.74515 84.3157 5.69437 84.4388 5.62358C84.565 5.55279 84.6281 5.42969 84.6281 5.25426V5.21733C84.6281 4.76184 84.5035 4.40791 84.2542 4.15554C84.008 3.90317 83.634 3.77699 83.1324 3.77699C82.6122 3.77699 82.2045 3.89086 81.909 4.11861C81.6135 4.34635 81.4058 4.58949 81.2858 4.84801L80.2517 4.47869C80.4363 4.04782 80.6826 3.71236 80.9903 3.4723C81.3012 3.22917 81.6397 3.0599 82.0059 2.96449C82.3753 2.866 82.7384 2.81676 83.0954 2.81676C83.3232 2.81676 83.5848 2.84446 83.8802 2.89986C84.1788 2.95218 84.4665 3.06143 84.7435 3.22763C85.0236 3.39382 85.2559 3.64465 85.4406 3.98011C85.6253 4.31558 85.7176 4.76491 85.7176 5.32812V10H84.6281V9.03977H84.5727C84.4988 9.19366 84.3757 9.35831 84.2034 9.53374C84.031 9.70916 83.8018 9.85843 83.5155 9.98153C83.2293 10.1046 82.88 10.1662 82.4676 10.1662ZM82.6338 9.1875C83.0647 9.1875 83.4278 9.10286 83.7233 8.93359C84.0218 8.76432 84.2465 8.54581 84.3973 8.27805C84.5512 8.0103 84.6281 7.72869 84.6281 7.43324V6.43608C84.5819 6.49148 84.4804 6.54226 84.3234 6.58842C84.1695 6.63151 83.991 6.66998 83.7879 6.70383C83.5879 6.73461 83.3924 6.76231 83.2016 6.78693C83.0139 6.80848 82.8615 6.82694 82.7446 6.84233C82.4614 6.87926 82.1968 6.93928 81.9506 7.02237C81.7074 7.10239 81.5104 7.22396 81.3596 7.38707C81.2119 7.54711 81.1381 7.76562 81.1381 8.04261C81.1381 8.42116 81.2781 8.70739 81.5581 8.90128C81.8413 9.09209 82.1998 9.1875 82.6338 9.1875ZM88.7956 0.545454V10H87.7061V0.545454H88.7956ZM102.203 3.5H101.058C100.99 3.17069 100.872 2.88139 100.703 2.6321C100.536 2.38281 100.333 2.17353 100.093 2.00426C99.8563 1.83191 99.5932 1.70265 99.3039 1.61648C99.0146 1.5303 98.713 1.48722 98.3991 1.48722C97.8266 1.48722 97.308 1.63187 96.8433 1.92116C96.3817 2.21046 96.0139 2.63672 95.74 3.19993C95.4691 3.76314 95.3337 4.45407 95.3337 5.27273C95.3337 6.09138 95.4691 6.78232 95.74 7.34553C96.0139 7.90874 96.3817 8.33499 96.8433 8.62429C97.308 8.91359 97.8266 9.05824 98.3991 9.05824C98.713 9.05824 99.0146 9.01515 99.3039 8.92898C99.5932 8.8428 99.8563 8.71508 100.093 8.54581C100.333 8.37346 100.536 8.16264 100.703 7.91335C100.872 7.66098 100.99 7.37169 101.058 7.04545H102.203C102.117 7.52865 101.96 7.96106 101.732 8.34268C101.504 8.72431 101.221 9.04901 100.883 9.31676C100.544 9.58144 100.164 9.78303 99.7425 9.92152C99.3239 10.06 98.8761 10.1293 98.3991 10.1293C97.5927 10.1293 96.8756 9.93229 96.2478 9.53835C95.6199 9.14441 95.126 8.58428 94.7659 7.85795C94.4058 7.13163 94.2258 6.26989 94.2258 5.27273C94.2258 4.27557 94.4058 3.41383 94.7659 2.6875C95.126 1.96117 95.6199 1.40104 96.2478 1.0071C96.8756 0.613163 97.5927 0.416193 98.3991 0.416193C98.8761 0.416193 99.3239 0.48544 99.7425 0.623934C100.164 0.762429 100.544 0.965554 100.883 1.23331C101.221 1.49799 101.504 1.82114 101.732 2.20277C101.96 2.58132 102.117 3.01373 102.203 3.5ZM106.786 10.1477C106.146 10.1477 105.584 9.99538 105.101 9.6907C104.621 9.38601 104.245 8.95975 103.975 8.41193C103.707 7.86411 103.573 7.22396 103.573 6.49148C103.573 5.75284 103.707 5.10807 103.975 4.55717C104.245 4.00627 104.621 3.57848 105.101 3.27379C105.584 2.96911 106.146 2.81676 106.786 2.81676C107.426 2.81676 107.986 2.96911 108.466 3.27379C108.95 3.57848 109.325 4.00627 109.593 4.55717C109.864 5.10807 109.999 5.75284 109.999 6.49148C109.999 7.22396 109.864 7.86411 109.593 8.41193C109.325 8.95975 108.95 9.38601 108.466 9.6907C107.986 9.99538 107.426 10.1477 106.786 10.1477ZM106.786 9.16903C107.272 9.16903 107.672 9.04439 107.986 8.7951C108.3 8.54581 108.533 8.21804 108.683 7.81179C108.834 7.40554 108.91 6.96544 108.91 6.49148C108.91 6.01752 108.834 5.57588 108.683 5.16655C108.533 4.75722 108.3 4.42637 107.986 4.17401C107.672 3.92164 107.272 3.79545 106.786 3.79545C106.3 3.79545 105.9 3.92164 105.586 4.17401C105.272 4.42637 105.039 4.75722 104.889 5.16655C104.738 5.57588 104.662 6.01752 104.662 6.49148C104.662 6.96544 104.738 7.40554 104.889 7.81179C105.039 8.21804 105.272 8.54581 105.586 8.7951C105.9 9.04439 106.3 9.16903 106.786 9.16903ZM112.752 0.545454V10H111.662V0.545454H112.752ZM115.837 0.545454V10H114.747V0.545454H115.837ZM120.805 10.1477C120.122 10.1477 119.533 9.99692 119.037 9.69531C118.545 9.39062 118.165 8.96591 117.897 8.42116C117.632 7.87334 117.5 7.23627 117.5 6.50994C117.5 5.78362 117.632 5.14347 117.897 4.58949C118.165 4.03243 118.537 3.59848 119.014 3.28764C119.494 2.97372 120.054 2.81676 120.694 2.81676C121.064 2.81676 121.428 2.87831 121.788 3.00142C122.149 3.12453 122.476 3.32457 122.772 3.60156C123.067 3.87547 123.303 4.23864 123.478 4.69105C123.653 5.14347 123.741 5.70052 123.741 6.36222V6.82386H118.275V5.8821H122.633C122.633 5.48201 122.553 5.125 122.393 4.81108C122.236 4.49716 122.012 4.24941 121.719 4.06783C121.43 3.88625 121.088 3.79545 120.694 3.79545C120.26 3.79545 119.885 3.90317 119.568 4.11861C119.254 4.33097 119.012 4.60795 118.843 4.94957C118.674 5.29119 118.589 5.65743 118.589 6.0483V6.67614C118.589 7.21165 118.682 7.6656 118.866 8.038C119.054 8.40732 119.314 8.68892 119.646 8.88281C119.979 9.07363 120.365 9.16903 120.805 9.16903C121.091 9.16903 121.35 9.12902 121.581 9.04901C121.815 8.96591 122.016 8.8428 122.185 8.67969C122.355 8.51349 122.486 8.30729 122.578 8.06108L123.63 8.35653C123.52 8.71354 123.333 9.02746 123.072 9.2983C122.81 9.56605 122.487 9.77533 122.102 9.92614C121.718 10.0739 121.285 10.1477 120.805 10.1477ZM128.261 12.8068C127.734 12.8068 127.282 12.7391 126.903 12.6037C126.525 12.4714 126.209 12.2959 125.957 12.0774C125.708 11.862 125.509 11.6312 125.362 11.3849L126.229 10.7756C126.328 10.9048 126.453 11.0526 126.603 11.2188C126.754 11.388 126.96 11.5342 127.222 11.6573C127.487 11.7835 127.833 11.8466 128.261 11.8466C128.833 11.8466 129.306 11.7081 129.678 11.4311C130.05 11.1541 130.237 10.7202 130.237 10.1293V8.68892H130.144C130.064 8.81818 129.95 8.97822 129.803 9.16903C129.658 9.35677 129.449 9.5245 129.175 9.67223C128.904 9.81688 128.538 9.8892 128.076 9.8892C127.504 9.8892 126.99 9.75379 126.534 9.48295C126.082 9.21212 125.723 8.81818 125.459 8.30114C125.197 7.78409 125.066 7.15625 125.066 6.41761C125.066 5.69129 125.194 5.05883 125.449 4.52024C125.705 3.97857 126.06 3.56001 126.516 3.26456C126.971 2.96603 127.497 2.81676 128.095 2.81676C128.556 2.81676 128.922 2.8937 129.193 3.04759C129.467 3.19839 129.676 3.37074 129.821 3.56463C129.969 3.75544 130.083 3.91241 130.163 4.03551H130.274V2.90909H131.326V10.2031C131.326 10.8125 131.188 11.308 130.911 11.6896C130.637 12.0743 130.267 12.3559 129.803 12.5344C129.341 12.716 128.827 12.8068 128.261 12.8068ZM128.224 8.91051C128.661 8.91051 129.03 8.81049 129.332 8.61044C129.633 8.41039 129.863 8.12263 130.02 7.74716C130.177 7.37169 130.255 6.92235 130.255 6.39915C130.255 5.88826 130.178 5.43738 130.024 5.04652C129.87 4.65566 129.643 4.34943 129.341 4.12784C129.039 3.90625 128.667 3.79545 128.224 3.79545C127.762 3.79545 127.377 3.91241 127.07 4.14631C126.765 4.38021 126.536 4.69413 126.382 5.08807C126.231 5.48201 126.156 5.91903 126.156 6.39915C126.156 6.89157 126.233 7.32706 126.386 7.70561C126.543 8.08108 126.774 8.37654 127.079 8.59197C127.387 8.80433 127.768 8.91051 128.224 8.91051ZM136.293 10.1477C135.61 10.1477 135.021 9.99692 134.525 9.69531C134.033 9.39062 133.653 8.96591 133.385 8.42116C133.12 7.87334 132.988 7.23627 132.988 6.50994C132.988 5.78362 133.12 5.14347 133.385 4.58949C133.653 4.03243 134.025 3.59848 134.502 3.28764C134.982 2.97372 135.542 2.81676 136.183 2.81676C136.552 2.81676 136.917 2.87831 137.277 3.00142C137.637 3.12453 137.965 3.32457 138.26 3.60156C138.555 3.87547 138.791 4.23864 138.966 4.69105C139.142 5.14347 139.229 5.70052 139.229 6.36222V6.82386H133.764V5.8821H138.122C138.122 5.48201 138.042 5.125 137.881 4.81108C137.725 4.49716 137.5 4.24941 137.207 4.06783C136.918 3.88625 136.577 3.79545 136.183 3.79545C135.749 3.79545 135.373 3.90317 135.056 4.11861C134.742 4.33097 134.501 4.60795 134.331 4.94957C134.162 5.29119 134.078 5.65743 134.078 6.0483V6.67614C134.078 7.21165 134.17 7.6656 134.354 8.038C134.542 8.40732 134.802 8.68892 135.135 8.88281C135.467 9.07363 135.853 9.16903 136.293 9.16903C136.58 9.16903 136.838 9.12902 137.069 9.04901C137.303 8.96591 137.504 8.8428 137.674 8.67969C137.843 8.51349 137.974 8.30729 138.066 8.06108L139.119 8.35653C139.008 8.71354 138.822 9.02746 138.56 9.2983C138.299 9.56605 137.975 9.77533 137.591 9.92614C137.206 10.0739 136.774 10.1477 136.293 10.1477Z" fill="white"/>
</svg>
